<?xml version="1.0" encoding="UTF-8"?>
<svg id="Calque_1" data-name="Calque 1" xmlns="http://www.w3.org/2000/svg" viewBox="0 0 841.89 841.89">
  <defs>
    <style>
      .cls-1 {
        fill: #fff;
      }

      .cls-2 {
        fill: #e8e8e8;
        opacity: .5;
      }
    </style>
  </defs>
  <rect x="176.95" y="164.16" width="505.71" height="505.71" rx="102.65" ry="102.65"/>
  <g>
    <g>
      <path class="cls-1" d="m531.82,321.11l-124.95,64.24,3.33,6.48c12.19,23.72,41.26,33.04,64.98,20.85l124.95-64.24-3.33-6.48c-12.18-23.69-41.26-33.04-64.98-20.85Z"/>
      <path class="cls-2" d="m367.17,308.14l43.03,83.7c12.19,23.72,41.26,33.04,64.98,20.85l-43.03-83.7c-12.19-23.72-41.29-33.03-64.98-20.85Z"/>
    </g>
    <g>
      <path class="cls-1" d="m428.22,528.74l121.7-70.2-3.64-6.31c-13.32-23.1-42.81-31.01-65.91-17.69l-121.7,70.2,3.64,6.31c13.31,23.07,42.81,31.01,65.91,17.69Z"/>
      <path class="cls-2" d="m593.3,533.74l-47.02-81.52c-13.32-23.1-42.81-31.01-65.91-17.69l47.02,81.52c13.32,23.1,42.84,31,65.91,17.69Z"/>
    </g>
    <g>
      <path class="cls-1" d="m298.5,351.59l67.55,123.2,6.39-3.5c23.38-12.82,31.93-42.13,19.11-65.51l-67.55-123.2-6.39,3.5c-23.36,12.81-31.93,42.13-19.11,65.51Z"/>
      <path class="cls-2" d="m289.92,516.53l82.52-45.25c23.38-12.82,31.93-42.13,19.11-65.51l-82.52,45.25c-23.38,12.82-31.92,42.16-19.11,65.51Z"/>
    </g>
  </g>
</svg>