<?xml version="1.0" encoding="UTF-8"?>
<svg id="Calque_1" data-name="Calque 1" xmlns="http://www.w3.org/2000/svg" viewBox="0 0 841.89 841.89">
  <defs>
    <style>
      .cls-1 {
        fill: #fff;
      }

      .cls-2 {
        fill: #2b7fff;
      }

      .cls-3 {
        fill: #e6f3ff;
        opacity: .5;
      }
    </style>
  </defs>
  <rect class="cls-2" x=".95" y="1" width="839.99" height="839.99" rx="173.59" ry="173.59"/>
  <g>
    <g>
      <path class="cls-1" d="m577.71,255.81l-207.54,106.71,5.54,10.77c20.25,39.39,68.54,54.88,107.93,34.63l207.54-106.71-5.54-10.77c-20.23-39.35-68.54-54.88-107.93-34.63Z"/>
      <path class="cls-3" d="m304.22,234.27l71.48,139.02c20.25,39.39,68.54,54.88,107.93,34.63l-71.48-139.02c-20.25-39.39-68.59-54.86-107.93-34.63Z"/>
    </g>
    <g>
      <path class="cls-1" d="m405.63,600.68l202.15-116.61-6.05-10.49c-22.13-38.37-71.11-51.51-109.48-29.38l-202.15,116.61,6.05,10.49c22.11,38.32,71.11,51.51,109.48,29.38Z"/>
      <path class="cls-3" d="m679.84,609l-78.11-135.41c-22.13-38.37-71.11-51.51-109.48-29.38l78.11,135.41c22.13,38.37,71.16,51.49,109.48,29.38Z"/>
    </g>
    <g>
      <path class="cls-1" d="m190.17,306.44l112.2,204.63,10.62-5.82c38.84-21.29,53.04-69.98,31.75-108.82l-112.2-204.63-10.62,5.82c-38.79,21.27-53.04,69.98-31.75,108.82Z"/>
      <path class="cls-3" d="m175.92,580.4l137.07-75.15c38.84-21.29,53.04-69.98,31.75-108.82l-137.07,75.15c-38.84,21.29-53.02,70.02-31.75,108.82Z"/>
    </g>
  </g>
</svg>